<?xml version="1.0" encoding="UTF-8"?>
<!-- Generated by Pixelmator Pro 3.6.8 -->
<svg width="465" height="464" viewBox="0 0 465 464" xmlns="http://www.w3.org/2000/svg">
    <path id="Shape" fill="none" stroke="#ffffff" stroke-width="3" d="M 208.468628 462 C 197.72229 462 195.846619 461.763855 195.301147 460.342285 C 194.951233 459.430542 195.193359 456.126648 195.839111 453.000244 C 196.484863 449.87384 196.728027 445.890137 196.379517 444.147583 C 196.031006 442.405029 196.273132 439.071472 196.917542 436.739685 C 197.854126 433.350708 197.77301 430.192566 196.513306 421 C 195.646606 414.674988 194.302002 406.349976 193.525452 402.5 C 192.74884 398.650024 191.431213 391.674988 190.597412 387 C 189.76355 382.325012 188.828491 375.125 188.51947 371 C 188.210449 366.875 188.368164 361.025024 188.869995 358 C 189.371826 354.974976 191.042175 347.603943 192.581848 341.619812 C 195.381226 330.739685 195.381226 330.739685 193.658081 314.619873 C 192.710327 305.753906 191.684998 296.8125 191.379517 294.75 C 191.074097 292.6875 190.506348 291 190.117798 291 C 189.729309 291 187.406372 295.11731 184.955688 300.149597 C 182.505066 305.181885 178.290405 312.232178 175.589783 315.816956 C 172.205566 320.309082 169.957153 324.691223 168.355103 329.917358 C 167.07666 334.08783 165.037354 340.650024 163.823364 344.5 C 162.609375 348.349976 160.598755 353.580444 159.355408 356.123291 C 158.112061 358.666077 153.827881 364.06604 149.834961 368.123291 C 145.842163 372.180481 140.031128 378.484009 136.921692 382.131165 C 133.812256 385.77832 128.806885 392.753296 125.798584 397.631165 C 122.790344 402.509033 119.607361 408.525024 118.725281 411 C 117.843262 413.474976 116.83313 417.69397 116.480652 420.375549 C 116.066467 423.526855 115.014465 426.076477 113.506042 427.5849 C 112.222412 428.868469 109.944275 430.226868 108.443359 430.603577 C 106.441223 431.106079 104.08136 430.483154 99.581909 428.264343 C 96.208984 426.601074 88.06073 421.600952 81.47467 417.152954 C 74.888611 412.704956 68.375 408.175171 67 407.086792 C 65.023682 405.522461 64.757019 404.850098 65.727051 403.876892 C 66.687988 402.912903 68.332092 402.899719 73.306274 403.816284 C 77.845398 404.652649 82.062012 404.705444 88.079224 404.001221 C 92.710632 403.459229 98.101013 402.570068 100.0578 402.02533 C 103.366089 401.10437 104.011108 400.209717 109.255981 389.267456 C 112.694946 382.092957 116.725708 371.255066 119.583191 361.5 C 122.16095 352.700012 125.528748 342.692505 127.0672 339.261169 C 128.605713 335.829834 133.733948 327.635254 138.463379 321.050964 C 143.19281 314.466675 148.324585 306.474182 149.86731 303.289795 C 151.410034 300.105408 154.135498 292.099976 155.92395 285.5 C 157.712341 278.900024 160.307556 270.125 161.691101 266 C 163.074646 261.875 165.678223 255.799988 167.476746 252.5 C 169.275269 249.200012 174.023682 241.325012 178.028809 235 C 182.033813 228.674988 186.357483 221.227661 187.636902 218.450378 C 188.916321 215.673096 190.864502 209.82312 191.966187 205.450378 C 193.067932 201.077637 193.974854 194.349976 193.981628 190.5 C 193.988403 186.650024 194.727905 177.708984 195.625061 170.631042 C 197.114014 158.883972 197.119507 157.140442 195.688416 150.631042 C 194.826111 146.708984 192.482178 138.549988 190.479736 132.5 C 188.477234 126.450012 185.501099 118.112793 183.86615 113.9729 C 182.231201 109.832947 180.553101 105.894897 180.136963 105.22168 C 179.550903 104.273376 178.041992 104.249634 173.440247 105.116089 C 170.173096 105.731201 162.775024 106.16687 157 106.084167 C 151.224976 106.001465 132.549988 105.497314 115.5 104.963867 C 98.450012 104.43042 81.799988 103.579041 78.5 103.071899 C 75.200012 102.564697 68.44104 101.615601 63.480103 100.96283 C 58.519104 100.310059 51.994141 100.058838 48.980103 100.404541 C 45.966003 100.750244 37.3125 101.252563 29.75 101.520752 C 17.961365 101.938843 16 101.793823 16 100.50415 C 16 99.57605 16.934875 99 18.440979 99 C 19.783508 99 21.147156 98.570862 21.471313 98.046387 C 21.815857 97.488892 19.344177 96.969604 15.521301 96.796387 C 11.924622 96.633362 8.963928 96.049988 8.941956 95.5 C 8.920044 94.950012 11.736633 94.007568 15.20105 93.40564 C 21.203308 92.362915 21.335144 92.280334 18 91.653198 C 16.075012 91.291199 11.835571 90.883667 8.578979 90.747498 C 5.322449 90.611389 2.492981 89.999146 2.291321 89.386963 C 2.086182 88.764221 3.59314 87.998169 5.712341 87.647949 C 7.795532 87.303711 12.402527 87.01709 15.950012 87.010986 C 19.769714 87.004517 22.012573 86.636597 21.450012 86.108765 C 20.92749 85.61853 17.69696 85.028015 14.271057 84.796448 C 10.845093 84.56488 7.70813 84.041504 7.299988 83.633301 C 6.891846 83.22522 7.140137 82.531433 7.851685 82.091675 C 8.563232 81.651917 13.500183 81.003662 18.822693 80.651245 C 24.145203 80.298706 31.101074 80.008057 34.280151 80.005188 C 38.282349 80.001587 41.97345 80.807556 46.280151 82.625366 C 52.170898 85.111938 53.089661 85.215942 63.645142 84.590942 C 69.774963 84.227905 80.349976 83.269287 87.145142 82.460571 C 96.095581 81.395325 104.11554 81.171387 116.25 81.647949 C 126.971008 82.06897 133 81.952942 133 81.325562 C 133 80.786499 128.612488 78.279297 123.25 75.753967 C 117.887512 73.228638 109.674988 69.394409 105 67.233398 C 100.325012 65.072388 90.424988 59.560547 83 54.984985 C 75.575012 50.409302 67.474976 45.628662 65 44.361328 C 62.525024 43.093994 58.25 41.53894 55.5 40.90564 C 52.75 40.272278 47.575012 38.606201 44 37.203125 C 40.424988 35.800171 35.084778 33.568176 32.132874 32.243225 C 28.259399 30.504639 27.069092 29.530884 27.855774 28.744263 C 28.642395 27.957581 29.674011 27.986084 31.562683 28.846619 C 33.606262 29.77771 34.090942 29.772766 33.774658 28.823975 C 33.551941 28.155762 32.273987 27.303101 30.934814 26.929199 C 29.595703 26.555359 27.262512 25.671082 25.75 24.964233 C 24.237488 24.257324 23 23.067627 23 22.320435 C 23 21.34375 23.772949 21.148926 25.75 21.627441 C 27.262512 21.993408 29.580688 22.691772 30.901489 23.179199 C 32.22229 23.666748 33.765076 23.911621 34.329834 23.723389 C 34.894653 23.535156 32.239014 21.894775 28.428406 20.078125 C 24.617798 18.261475 21.07251 16.375732 20.549988 15.887573 C 19.950867 15.327759 19.964844 14.635132 20.58783 14.012207 C 21.238281 13.361694 23.945984 13.884033 28.515747 15.541626 C 32.332825 16.926025 36.140808 17.924561 36.977905 17.760254 C 37.815063 17.596069 35.237488 15.928101 31.25 14.053711 C 27.262512 12.179321 24 10.216187 24 9.691162 C 24 9.154053 25.639709 8.984619 27.75 9.303711 C 29.8125 9.615601 35.325012 11.06543 40 12.525635 C 44.674988 13.98584 50.383301 16.001831 52.685181 17.005371 C 54.987061 18.009033 59.362915 21.283203 62.409363 24.281372 C 66.890869 28.691895 69.242004 30.134705 74.724182 31.838745 C 78.450867 32.99707 87.349976 35.36731 94.5 37.105896 C 101.650024 38.844482 110.650024 41.75531 114.5 43.574402 C 118.349976 45.393494 123.989136 48.489441 127.031494 50.454346 C 130.967102 52.996094 136.01593 54.907837 144.531494 57.080566 C 152.812866 59.193542 159.734741 60.265442 167 60.559937 C 172.775024 60.794067 180.566772 61.442444 184.315063 62.000793 C 188.063354 62.559143 192.465088 63.706299 194.09668 64.549988 C 196.778748 65.936951 197.851257 65.922424 205.281616 64.398376 C 210.592896 63.30896 214.119019 62.016846 215.25 60.745605 C 216.254089 59.616943 217 57.184326 217 55.038452 C 217 52.981445 216.471069 49.768799 215.824646 47.899231 C 215.178223 46.029663 214.098999 44.049988 213.426514 43.5 C 212.754028 42.950012 211.48291 41.059814 210.601868 39.299683 C 209.720825 37.539429 209 34.534973 209 32.622986 C 209 30.257202 209.504944 29.043335 210.580566 28.823364 C 211.740723 28.58606 212.268494 26.968018 212.564575 22.741699 C 212.786377 19.574463 213.86499 15.299561 214.961426 13.241699 C 216.057861 11.183716 217.527588 8.79126 218.227478 7.924805 C 218.927368 7.058594 220.625 5.631104 222 4.752808 C 223.375 3.874512 226.557007 2.856689 229.071106 2.491211 C 231.605896 2.122681 235.483521 2.322388 237.775635 2.939575 C 240.049011 3.551758 243.343567 5.259644 245.096802 6.734863 C 246.850098 8.210205 249.110657 11.23584 250.120361 13.458618 C 251.205933 15.848511 251.965088 19.849609 251.978027 23.25 C 251.997437 28.32605 252.234436 29 254 29 C 255.47345 29 256 29.666626 256 31.532104 C 256 32.924805 255.336975 35.651123 254.526611 37.590576 C 253.716248 39.530029 252.205688 42.194336 251.1698 43.511353 C 250.13385 44.828247 248.724243 47.913269 248.037231 50.366943 C 247.064026 53.842957 247.049561 55.620178 247.971802 58.414551 C 248.73407 60.724304 249.92865 62.179016 251.327698 62.501282 C 252.522461 62.776489 256.46228 63.668701 260.082825 64.483887 C 266.345032 65.893921 266.953857 65.86084 272.582825 63.804932 C 277.031982 62.17981 281.353088 61.559204 290 61.303101 C 296.683472 61.105225 305.478882 60.088501 311 58.87561 C 316.224976 57.727783 323.137024 56.157837 326.359985 55.386841 C 329.810242 54.561523 335.773071 51.802368 340.859985 48.67749 C 345.612 45.758301 352.200012 42.398682 355.5 41.211548 C 358.799988 40.024414 367.125 37.696289 374 36.038025 C 380.875 34.379761 388.763 32.351135 391.528931 31.530029 C 394.944458 30.516113 397.831787 28.707275 400.528931 25.891846 C 402.713013 23.611816 406.476135 20.468994 408.891479 18.907715 C 411.306763 17.346436 416.031738 15.212891 419.391479 14.166748 C 422.75116 13.120483 428.106079 11.501099 431.291382 10.568115 C 434.476563 9.635132 438.076599 9.029541 439.291382 9.222412 C 440.982056 9.490967 439.624023 10.571655 433.5 13.831177 C 428.292236 16.603027 426.547119 17.903809 428.5 17.558105 C 430.150024 17.266113 434.172485 16.116089 437.438904 15.002441 C 441.44165 13.637817 443.707397 13.307373 444.388916 13.988892 C 445.026245 14.626221 445.048828 15.331299 444.450012 15.896484 C 443.92749 16.389404 441.025024 17.810547 438 19.054565 C 434.974976 20.298584 431.825012 21.968384 431 22.765503 C 429.679688 24.041016 429.799438 24.133545 432 23.537842 C 433.375 23.165649 435.104309 22.665405 435.842896 22.42627 C 436.581482 22.187134 438.268982 21.719604 439.592896 21.387329 C 441.320862 20.953613 442 21.199341 442 22.258301 C 442 23.079224 439.671997 24.752441 436.75 26.031372 C 431.5 28.329468 431.5 28.329468 435 28.988647 C 438.5 29.647888 438.5 29.647888 431.5 32.913513 C 427.650024 34.709595 422.924988 36.795654 421 37.549316 C 419.075012 38.302856 413.820068 39.838867 409.322266 40.962524 C 402.616455 42.637939 398.296814 44.73645 385.322266 52.621948 C 376.619995 57.910889 367.25 63.445313 364.5 64.920654 C 361.75 66.396118 356.125 69.075073 352 70.874146 C 347.875 72.673096 341.446533 75.536377 337.714478 77.236938 C 333.982361 78.9375 331.282349 80.681152 331.714478 81.111694 C 332.146484 81.542236 335.200012 82.006592 338.5 82.143677 C 341.799988 82.280823 349 82.037476 354.5 81.603027 C 361.870117 81.020752 367.918884 81.244141 377.5 82.452332 C 384.650024 83.353943 395.450012 84.35437 401.5 84.675415 C 411.827148 85.223511 412.880493 85.098389 418.719849 82.629639 C 423.6651 80.538879 426.554443 80 432.81897 80 C 437.152588 80 444.103821 80.287842 448.266174 80.639771 C 452.428589 80.991577 456.420898 81.64209 457.138062 82.085327 C 457.855286 82.528564 458.153198 83.180176 457.800049 83.533325 C 457.446899 83.886414 454.309937 84.416748 450.828979 84.711792 C 447.348022 85.006897 444.07251 85.642456 443.549988 86.124146 C 442.998047 86.633057 445.302551 87.004639 449.049988 87.010986 C 452.597534 87.01709 457.1875 87.300903 459.25 87.641846 C 461.455566 88.006409 463 88.825562 463 89.630859 C 463 90.654663 461.171326 91.025146 455.75 91.09967 C 451.762512 91.154541 447.375 91.521301 446 91.914795 C 444.015869 92.482605 444.681152 92.756104 449.224304 93.240234 C 452.372681 93.575684 455.41748 94.140015 455.990601 94.494202 C 456.563721 94.848389 456.773682 95.557129 456.457275 96.069092 C 456.140869 96.581055 453.235107 97 450 97 C 446.764893 97 443.839905 97.450012 443.5 98 C 443.138062 98.585632 444.184082 99 446.024292 99 C 448.092346 99 449.025146 99.427368 448.752625 100.25 C 448.474182 101.090637 445.417603 101.608704 439.419312 101.831909 C 434.513672 102.014526 426.744751 101.597839 422.155029 100.906006 C 415.447754 99.89502 411.424561 99.89563 401.655029 100.908875 C 394.969727 101.602295 383.877747 102.806396 377.006104 103.584778 C 370.134521 104.363159 357.759521 105.004028 349.506104 105.008911 C 341.252747 105.013855 327.225098 105.460388 318.333618 106.001221 C 305.206299 106.799683 300.600647 106.708252 293.833618 105.514954 C 286.504883 104.222534 285.366882 104.222473 284.395996 105.51416 C 283.788818 106.321899 281.674316 111.149231 279.697144 116.241455 C 277.719971 121.333618 274.210327 131.349976 271.898071 138.5 C 268.893921 147.78949 267.686279 153.22644 267.667236 157.548828 C 267.652466 160.87561 268.171387 166.812317 268.82019 170.741455 C 269.469116 174.670532 270 182.494873 270 188.128845 C 270 195.471313 270.595215 200.514648 272.101563 205.936218 C 273.257385 210.096313 275.735718 216.437744 277.608948 220.028381 C 279.482178 223.619019 284.240112 230.81897 288.182129 236.028381 C 292.124146 241.237793 297.096497 248.481384 299.231812 252.125305 C 301.367188 255.769287 304.187744 261.923584 305.499817 265.801697 C 306.81189 269.67981 308.851379 278.398376 310.032043 285.176392 C 311.212708 291.954346 313.090576 300.564514 314.204956 304.309998 C 315.319458 308.055481 318.369324 315.255493 320.982544 320.309998 C 323.595703 325.364502 328.375 334.450012 331.603027 340.5 C 334.831177 346.549988 340.174316 356.900024 343.476685 363.5 C 346.779053 370.099976 350.136963 377.075012 350.938843 379 C 351.740601 380.924988 352.661865 382.724976 352.985962 383 C 353.31012 383.275024 354.770386 385.974976 356.230957 389 C 357.691528 392.025024 359.415894 395.960571 360.062805 397.745667 C 360.960083 400.221619 362.100098 401.231384 364.869507 402.00354 C 366.866272 402.560242 372.298584 403.460388 376.941406 404.003784 C 382.838745 404.694092 387.309082 404.656433 391.774292 403.878845 C 396.601563 403.038208 398.451416 403.052429 399.332886 403.93689 C 400.223022 404.830078 399.906738 405.574707 398 407.074707 C 396.625 408.156372 390.549988 412.346191 384.5 416.385376 C 378.450012 420.424622 370.345581 425.441162 366.490112 427.533386 C 360.986816 430.519775 358.872803 431.184875 356.653992 430.627991 C 355.099548 430.237854 352.771362 428.862244 351.480164 427.571045 C 350.188965 426.279907 348.872559 423.485657 348.554871 421.361755 C 348.237183 419.237793 347.51709 415.474976 346.954773 413 C 346.392456 410.525024 345.047363 407.375 343.96582 406 C 342.884277 404.625 340.324707 401.025024 338.277954 398 C 336.231201 394.974976 333.418823 390.361755 332.02832 387.748352 C 330.637695 385.13501 324.612061 377.95459 318.637817 371.79187 C 311.689209 364.623962 306.925049 358.769897 305.414551 355.543518 C 304.115845 352.769592 300.95343 344.424988 298.386841 337 C 295.820251 329.575012 292.478516 321.25 290.960693 318.5 C 289.442871 315.75 285.844116 309.450012 282.963501 304.5 C 280.082764 299.549988 277.149353 294.877869 276.444702 294.117493 C 275.384399 292.973328 274.785278 294.007507 272.968506 300.117493 C 271.76123 304.177856 269.946289 310.200012 268.935242 313.5 C 267.924255 316.799988 266.630005 323.325012 266.059082 328 C 265.488159 332.674988 264.566895 345.049988 264.011841 355.5 C 263.456726 365.950012 262.544067 382.375 261.983765 392 C 261.42334 401.625 260.528809 415.503296 259.995789 422.840637 C 259.383057 431.275452 259.375977 436.833984 259.976563 437.956177 C 260.498962 438.932373 265.105469 442.596436 270.213196 446.098572 C 275.320923 449.600708 281.75 453.229309 284.5 454.162048 C 287.25 455.094849 289.950012 456.591309 290.5 457.487549 C 291.252441 458.713745 291.01947 459.473938 289.558838 460.558594 C 288.003418 461.713623 283.146423 462 265.113586 462 C 242.609436 462 242.609436 462 239.804688 459.312927 C 237.795471 457.387939 237 455.649597 237 453.183899 C 237 451.290833 238.125 446.62323 239.5 442.811401 C 240.875 438.999573 241.996338 434.220154 241.991943 432.19043 C 241.987488 430.160706 241.324097 423.549988 240.5177 417.5 C 239.711365 411.450012 238.351074 402 237.494873 396.5 C 236.638672 391 235.49292 382.749084 234.948608 378.164612 C 234.268982 372.439697 234.298401 367.272156 235.042603 361.664612 C 235.63855 357.174072 236.5354 348.775024 237.035645 343 C 237.593872 336.554443 237.573486 325.163452 236.982788 313.5 C 236.453491 303.049988 235.539246 289.17749 234.951111 282.672241 C 234.362915 276.166931 233.897705 263.4245 233.917297 254.355713 C 233.95282 237.871094 233.952271 237.867188 231.72644 238.183533 C 229.556152 238.492004 229.495239 238.852966 229.311279 252.5 C 229.207458 260.200012 228.405823 273.25 227.529785 281.5 C 226.653809 289.75 225.532959 304.150024 225.039001 313.5 C 224.340637 326.720093 223.661621 331.834106 221.985352 336.5 C 220.799683 339.799988 219.434204 344.974976 218.950806 348 C 218.467407 351.025024 217.816895 360.025024 217.505127 368 C 217.19342 375.974976 216.510376 387.450012 215.987305 393.5 C 215.464233 399.549988 214.740234 410.575012 214.37854 418 C 214.008179 425.601624 214.168091 435.324646 214.744568 440.253723 C 215.552551 447.162537 216.319641 449.730286 218.384155 452.437012 C 219.891113 454.41272 221 457.166626 221 458.933289 C 221 462 221 462 208.468628 462 Z"/>
</svg>
